<svg width="87" height="86" viewBox="0 0 87 86" fill="none" xmlns="http://www.w3.org/2000/svg">
<path fill-rule="evenodd" clip-rule="evenodd" d="M54.612 76.3872C59.8542 74.6967 64.6706 71.7964 68.6486 67.8819C75.3198 61.2753 79.0812 52.3241 79.0812 43C79.0812 33.6759 75.3198 24.7247 68.6486 18.1182C61.957 11.5317 52.8886 7.81818 43.4464 7.81818C41.2603 7.81818 39.4869 6.06741 39.4869 3.90909C39.4869 1.75078 41.2603 0 43.4464 0C54.9877 0 66.0737 4.53411 74.2499 12.588C82.4075 20.6602 87 31.6053 87 43C87 54.3947 82.4075 65.3398 74.2499 73.412C66.0737 81.4659 54.9877 86 43.4464 86C32.4585 86 21.8667 81.8954 13.8108 74.5268C5.75318 67.138 0.823796 57.0135 0.0111801 46.2055C-0.151713 44.0472 1.48463 42.1685 3.66333 42.0131C5.84388 41.856 7.74677 43.4715 7.90966 45.6189C8.58345 54.4732 12.6021 62.7611 19.1956 68.7993C23.9602 73.1671 29.8133 76.1222 36.0902 77.4088C36.0884 74.7205 36.0847 72.3849 36.081 71.7087C26.3351 73.8615 24.6784 66.9297 24.6784 66.9297C23.0847 62.8123 20.7875 61.7139 20.7875 61.7139C17.6074 59.5044 21.0263 59.5483 21.0263 59.5483C24.5433 59.7987 26.3962 63.2235 26.3962 63.2235C29.5208 68.6695 34.154 67.0997 36.1495 66.1877C36.4679 63.885 37.0769 62.3079 38.0764 61.4179C30.2964 60.5187 23.1384 57.4594 23.1384 43.8023C23.1384 39.9133 23.4827 36.7297 25.7224 34.2406C25.3615 33.3397 24.1546 29.7157 26.063 24.8106C29.4135 24.6552 32.3733 28.2756 35.3554 29.6608C38.5596 28.7398 42.3376 28.3542 45.2419 28.3797C48.1795 28.4053 52.089 28.8531 54.7915 29.6608C57.0461 28.0983 60.4946 24.6059 64.1579 24.732L64.7225 24.8106C66.6346 29.7157 65.4277 33.3397 65.0686 34.2406C67.314 36.7297 67.5638 39.9133 67.5638 43.8023C67.5638 57.496 59.9264 60.5114 52.1223 61.3923C53.3792 62.4943 54.6249 64.669 54.6249 67.9933C54.6249 69.459 54.6175 72.7541 54.612 76.3872ZM26.8756 11.8442C28.81 10.8409 29.556 8.47609 28.5398 6.56632C27.5235 4.65838 25.1282 3.92188 23.1939 4.9252C14.9585 9.20528 8.30579 15.9873 4.24826 24.255C3.28571 26.1977 4.10203 28.5406 6.06971 29.4836C8.03554 30.4284 10.4142 29.6188 11.3749 27.6761C14.7012 20.8942 20.1248 15.3622 26.8756 11.8442Z" fill="#040404"/>
</svg>
